<svg xmlns="http://www.w3.org/2000/svg" viewBox="0 0 447.26 456.35"><defs><style>.cls-1{fill:#ef3b39;}.cls-2{fill:#72bf44;}.cls-3{fill:#4ec8f1;}.cls-4{fill:#ee4398;}.cls-5{font-size:21px;}.cls-10,.cls-5,.cls-9{fill:#231f20;}.cls-10,.cls-5{font-family:MyriadPro-Regular, Myriad Pro;}.cls-6{fill:#d1d3d4;stroke:#d1d3d4;stroke-width:4px;}.cls-6,.cls-8{stroke-miterlimit:10;}.cls-7{letter-spacing:-0.03em;}.cls-8{fill:none;stroke:#231f20;}.cls-10{font-size:12px;}</style></defs><title>Asset 4</title><g id="Layer_2" data-name="Layer 2"><g id="Layer_1-2" data-name="Layer 1"><circle class="cls-1" cx="69.4" cy="100.17" r="10"/><circle class="cls-1" cx="188.19" cy="100.17" r="10"/><circle class="cls-1" cx="306.98" cy="100.17" r="10"/><circle class="cls-2" cx="128.79" cy="278.36" r="10"/><circle class="cls-3" cx="247.59" cy="278.36" r="10"/><circle class="cls-2" cx="366.38" cy="278.36" r="10"/><circle class="cls-2" cx="10" cy="159.57" r="10"/><circle class="cls-3" cx="128.79" cy="159.57" r="10"/><circle class="cls-2" cx="247.59" cy="159.57" r="10"/><circle class="cls-4" cx="69.4" cy="218.96" r="10"/><circle class="cls-4" cx="188.19" cy="218.96" r="10"/><circle class="cls-4" cx="306.98" cy="218.96" r="10"/><circle class="cls-3" cx="128.79" cy="397.16" r="10"/><circle class="cls-3" cx="247.59" cy="40.77" r="10"/><circle class="cls-1" cx="188.19" cy="337.76" r="10"/><circle class="cls-1" cx="69.4" cy="337.76" r="10"/><circle class="cls-1" cx="306.98" cy="337.76" r="10"/><text class="cls-5" transform="translate(241.4 24.57)">0</text><text class="cls-5" transform="translate(64.4 85.57)">1</text><text class="cls-5" transform="translate(182.4 85.57)">2</text><text class="cls-5" transform="translate(302.4 85.57)">3</text><text class="cls-5" transform="translate(3.4 142.57)">4</text><text class="cls-5" transform="translate(121.4 142.57)">5</text><text class="cls-5" transform="translate(241.4 142.57)">6</text><text class="cls-5" transform="translate(63.4 200.57)">7</text><text class="cls-5" transform="translate(181.4 200.57)">8</text><text class="cls-5" transform="translate(301.4 200.57)">9</text><text class="cls-5" transform="translate(118.4 260.57)">10</text><text class="cls-5" transform="translate(236.4 260.57)">11</text><text class="cls-5" transform="translate(356.4 260.57)">12</text><text class="cls-5" transform="translate(59.19 320.57)">13</text><text class="cls-5" transform="translate(177.19 320.57)">14</text><text class="cls-5" transform="translate(297.19 320.57)">15</text><text class="cls-5" transform="translate(119.4 379.57)">16</text><line class="cls-6" x1="10" y1="100.17" x2="292.14" y2="382.31"/><rect class="cls-6" x="3.5" y="93.67" width="13" height="13"/><rect class="cls-6" x="285.64" y="375.81" width="13" height="13"/><line class="cls-6" x1="155.92" y1="8.5" x2="438.05" y2="290.64"/><rect class="cls-6" x="149.42" y="2" width="13" height="13"/><rect class="cls-6" x="431.55" y="284.14" width="13" height="13"/><line class="cls-6" x1="16.5" y1="311.72" x2="152.63" y2="447.85"/><rect class="cls-6" x="146.13" y="441.35" width="13" height="13"/><rect class="cls-6" x="10" y="305.22" width="13" height="13"/><text class="cls-5" transform="translate(64.4 388.86) rotate(45)"><tspan class="cls-7">F</tspan><tspan x="9.58" y="0">eedline 0</tspan></text><text class="cls-5" transform="translate(208.1 341.9) rotate(45)"><tspan class="cls-7">F</tspan><tspan x="9.58" y="0">eedline 1</tspan></text><text class="cls-5" transform="translate(371.38 209.02) rotate(45)"><tspan class="cls-7">F</tspan><tspan x="9.58" y="0">eedline 2</tspan></text></g><g id="Connections"><line class="cls-8" x1="78.88" y1="103.32" x2="120.72" y2="145.16"/><polygon class="cls-9" points="116.12 145.79 119.85 144.29 121.36 140.56 124.94 149.38 116.12 145.79"/><line class="cls-8" x1="79.56" y1="110.89" x2="121.4" y2="152.73"/><polygon class="cls-9" points="78.92 115.5 80.43 111.77 84.16 110.26 75.33 106.67 78.92 115.5"/><text class="cls-10" transform="translate(103.49 122.58) rotate(45)">3</text><text class="cls-10" transform="translate(86.39 134.9) rotate(45)">27</text><line class="cls-8" x1="255.6" y1="45.91" x2="297.44" y2="87.75"/><polygon class="cls-9" points="292.84 88.38 296.57 86.88 298.08 83.15 301.67 91.97 292.84 88.38"/><line class="cls-8" x1="256.28" y1="53.48" x2="298.12" y2="95.32"/><polygon class="cls-9" points="255.64 58.09 257.15 54.35 260.88 52.85 252.06 49.26 255.64 58.09"/><text class="cls-10" transform="translate(280.21 65.17) rotate(45)">1</text><text class="cls-10" transform="translate(263.11 77.49) rotate(45)">25</text><line class="cls-8" x1="14.98" y1="150.96" x2="56.83" y2="109.12"/><polygon class="cls-9" points="57.46 113.72 55.95 109.99 52.22 108.49 61.05 104.9 57.46 113.72"/><line class="cls-8" x1="22.56" y1="150.29" x2="64.4" y2="108.44"/><polygon class="cls-9" points="27.16 150.92 23.43 149.41 21.92 145.68 18.34 154.51 27.16 150.92"/><text class="cls-10" transform="translate(34.25 126.36) rotate(-45)">2</text><text class="cls-10" transform="translate(46.57 143.45) rotate(-45)">26</text><line class="cls-8" x1="193.39" y1="92.55" x2="235.23" y2="50.71"/><polygon class="cls-9" points="235.86 55.31 234.36 51.58 230.63 50.07 239.45 46.48 235.86 55.31"/><line class="cls-8" x1="200.96" y1="91.87" x2="242.8" y2="50.03"/><polygon class="cls-9" points="205.57 92.51 201.84 91 200.33 87.27 196.74 96.09 205.57 92.51"/><text class="cls-10" transform="translate(212.65 67.94) rotate(-45)">0</text><text class="cls-10" transform="translate(224.97 85.04) rotate(-45)">24</text><line class="cls-8" x1="196.27" y1="104.97" x2="238.11" y2="146.81"/><polygon class="cls-9" points="233.5 147.44 237.23 145.94 238.74 142.21 242.33 151.03 233.5 147.44"/><line class="cls-8" x1="196.94" y1="112.54" x2="238.78" y2="154.38"/><polygon class="cls-9" points="196.31 117.15 197.81 113.42 201.54 111.91 192.72 108.32 196.31 117.15"/><text class="cls-10" transform="translate(220.87 124.23) rotate(45)">5</text><text class="cls-10" transform="translate(203.78 136.55) rotate(45)">29</text><line class="cls-8" x1="134.05" y1="151.61" x2="175.89" y2="109.77"/><polygon class="cls-9" points="176.53 114.37 175.02 110.64 171.29 109.14 180.12 105.55 176.53 114.37"/><line class="cls-8" x1="141.62" y1="150.94" x2="183.47" y2="109.1"/><polygon class="cls-9" points="146.23 151.57 142.5 150.06 140.99 146.33 137.4 155.16 146.23 151.57"/><text class="cls-10" transform="translate(153.31 127.01) rotate(-45)">4</text><text class="cls-10" transform="translate(165.63 144.1) rotate(-45)">28</text><line class="cls-8" x1="136.87" y1="164.17" x2="178.71" y2="206.01"/><polygon class="cls-9" points="174.11 206.65 177.84 205.14 179.34 201.41 182.93 210.24 174.11 206.65"/><line class="cls-8" x1="137.54" y1="171.74" x2="179.38" y2="213.59"/><polygon class="cls-9" points="136.91 176.35 138.42 172.62 142.15 171.11 133.32 167.52 136.91 176.35"/><text class="cls-10" transform="translate(161.47 183.43) rotate(45)">9</text><text class="cls-10" transform="translate(144.38 195.75) rotate(45)">33</text><line class="cls-8" x1="74.66" y1="210.81" x2="116.5" y2="168.97"/><polygon class="cls-9" points="117.13 173.57 115.62 169.84 111.89 168.34 120.72 164.75 117.13 173.57"/><line class="cls-8" x1="82.23" y1="210.14" x2="124.07" y2="168.3"/><polygon class="cls-9" points="86.83 210.77 83.1 209.26 81.6 205.53 78.01 214.36 86.83 210.77"/><text class="cls-10" transform="translate(93.92 186.21) rotate(-45)">8</text><text class="cls-10" transform="translate(106.24 203.3) rotate(-45)">32</text><line class="cls-8" x1="255.66" y1="164.17" x2="297.5" y2="206.01"/><polygon class="cls-9" points="292.9 206.65 296.63 205.14 298.14 201.41 301.73 210.24 292.9 206.65"/><line class="cls-8" x1="256.34" y1="171.74" x2="298.18" y2="213.59"/><polygon class="cls-9" points="255.7 176.35 257.21 172.62 260.94 171.11 252.12 167.52 255.7 176.35"/><text class="cls-10" transform="translate(280.27 183.43) rotate(45)">11</text><text class="cls-10" transform="translate(263.17 195.75) rotate(45)">35</text><line class="cls-8" x1="193.45" y1="210.81" x2="235.29" y2="168.97"/><polygon class="cls-9" points="235.92 173.57 234.42 169.84 230.69 168.34 239.51 164.75 235.92 173.57"/><line class="cls-8" x1="201.02" y1="210.14" x2="242.86" y2="168.3"/><polygon class="cls-9" points="205.63 210.77 201.9 209.26 200.39 205.53 196.8 214.36 205.63 210.77"/><text class="cls-10" transform="translate(212.71 186.21) rotate(-45)">10</text><text class="cls-10" transform="translate(225.03 203.3) rotate(-45)">34</text><line class="cls-8" x1="196.27" y1="223.57" x2="238.11" y2="265.41"/><polygon class="cls-9" points="233.5 266.04 237.23 264.54 238.74 260.81 242.33 269.63 233.5 266.04"/><line class="cls-8" x1="196.94" y1="231.14" x2="238.78" y2="272.98"/><polygon class="cls-9" points="196.31 235.75 197.81 232.01 201.54 230.51 192.72 226.92 196.31 235.75"/><text class="cls-10" transform="translate(220.87 242.83) rotate(45)">14</text><text class="cls-10" transform="translate(203.78 255.15) rotate(45)">38</text><line class="cls-8" x1="134.05" y1="270.21" x2="175.89" y2="228.37"/><polygon class="cls-9" points="176.53 232.97 175.02 229.24 171.29 227.74 180.12 224.15 176.53 232.97"/><line class="cls-8" x1="141.62" y1="269.54" x2="183.47" y2="227.69"/><polygon class="cls-9" points="146.23 270.17 142.5 268.66 140.99 264.93 137.4 273.76 146.23 270.17"/><text class="cls-10" transform="translate(153.31 245.61) rotate(-45)">13</text><text class="cls-10" transform="translate(165.63 262.7) rotate(-45)">37</text><line class="cls-8" x1="315.06" y1="223.57" x2="356.9" y2="265.41"/><polygon class="cls-9" points="352.3 266.04 356.03 264.54 357.53 260.81 361.12 269.63 352.3 266.04"/><line class="cls-8" x1="315.73" y1="231.14" x2="357.57" y2="272.98"/><polygon class="cls-9" points="315.1 235.75 316.61 232.01 320.34 230.51 311.51 226.92 315.1 235.75"/><text class="cls-10" transform="translate(339.66 242.83) rotate(45)">16</text><text class="cls-10" transform="translate(322.57 255.15) rotate(45)">40</text><line class="cls-8" x1="252.85" y1="270.21" x2="294.69" y2="228.37"/><polygon class="cls-9" points="295.32 232.97 293.81 229.24 290.08 227.74 298.91 224.15 295.32 232.97"/><line class="cls-8" x1="260.42" y1="269.54" x2="302.26" y2="227.69"/><polygon class="cls-9" points="265.02 270.17 261.29 268.66 259.79 264.93 256.2 273.76 265.02 270.17"/><text class="cls-10" transform="translate(272.11 245.61) rotate(-45)">15</text><text class="cls-10" transform="translate(284.43 262.7) rotate(-45)">39</text><line class="cls-8" x1="136.87" y1="282.97" x2="178.71" y2="324.81"/><polygon class="cls-9" points="174.1 325.44 177.84 323.94 179.34 320.2 182.93 329.03 174.1 325.44"/><line class="cls-8" x1="137.54" y1="290.54" x2="179.38" y2="332.38"/><polygon class="cls-9" points="136.91 295.14 138.42 291.41 142.15 289.91 133.32 286.32 136.91 295.14"/><text class="cls-10" transform="translate(161.47 302.23) rotate(45)">18</text><text class="cls-10" transform="translate(144.38 314.55) rotate(45)">42</text><line class="cls-8" x1="74.66" y1="329.61" x2="116.5" y2="287.76"/><polygon class="cls-9" points="117.13 292.37 115.62 288.64 111.89 287.13 120.72 283.54 117.13 292.37"/><line class="cls-8" x1="82.23" y1="328.93" x2="124.07" y2="287.09"/><polygon class="cls-9" points="86.83 329.56 83.1 328.06 81.59 324.33 78.01 333.15 86.83 329.56"/><text class="cls-10" transform="translate(93.92 305) rotate(-45)">17</text><text class="cls-10" transform="translate(106.24 322.1) rotate(-45)">41</text><line class="cls-8" x1="255.66" y1="284.26" x2="297.5" y2="326.1"/><polygon class="cls-9" points="292.9 326.73 296.63 325.22 298.14 321.49 301.73 330.32 292.9 326.73"/><line class="cls-8" x1="256.34" y1="291.83" x2="298.18" y2="333.67"/><polygon class="cls-9" points="255.7 296.43 257.21 292.7 260.94 291.19 252.12 287.61 255.7 296.43"/><text class="cls-10" transform="translate(280.27 303.52) rotate(45)">20</text><text class="cls-10" transform="translate(263.17 315.84) rotate(45)">44</text><line class="cls-8" x1="193.45" y1="330.89" x2="235.29" y2="289.05"/><polygon class="cls-9" points="235.92 293.66 234.42 289.93 230.69 288.42 239.51 284.83 235.92 293.66"/><line class="cls-8" x1="201.02" y1="330.22" x2="242.86" y2="288.38"/><polygon class="cls-9" points="205.63 330.85 201.9 329.35 200.39 325.62 196.8 334.44 205.63 330.85"/><text class="cls-10" transform="translate(212.71 306.29) rotate(-45)">19</text><text class="cls-10" transform="translate(225.03 323.38) rotate(-45)">43</text><line class="cls-8" x1="78.57" y1="342.9" x2="120.41" y2="384.74"/><polygon class="cls-9" points="115.81 385.38 119.54 383.87 121.04 380.14 124.63 388.97 115.81 385.38"/><line class="cls-8" x1="79.24" y1="350.48" x2="121.08" y2="392.32"/><polygon class="cls-9" points="78.61 355.08 80.12 351.35 83.85 349.84 75.02 346.25 78.61 355.08"/><text class="cls-10" transform="translate(103.17 362.16) rotate(45)">22</text><text class="cls-10" transform="translate(86.08 374.48) rotate(45)">46</text><line class="cls-8" x1="135.15" y1="390.83" x2="176.99" y2="348.99"/><polygon class="cls-9" points="177.63 353.59 176.12 349.86 172.39 348.36 181.21 344.77 177.63 353.59"/><line class="cls-8" x1="142.72" y1="390.16" x2="184.56" y2="348.32"/><polygon class="cls-9" points="147.33 390.79 143.6 389.28 142.09 385.55 138.5 394.38 147.33 390.79"/><text class="cls-10" transform="translate(154.41 366.23) rotate(-45)">23</text><text class="cls-10" transform="translate(166.73 383.32) rotate(-45)">47</text><line class="cls-8" x1="253.99" y1="152.61" x2="295.83" y2="110.77"/><polygon class="cls-9" points="296.46 115.37 294.96 111.64 291.23 110.14 300.05 106.55 296.46 115.37"/><line class="cls-8" x1="261.56" y1="151.94" x2="303.4" y2="110.1"/><polygon class="cls-9" points="266.16 152.57 262.43 151.06 260.93 147.33 257.34 156.16 266.16 152.57"/><text class="cls-10" transform="translate(273.25 128.01) rotate(-45)">6</text><text class="cls-10" transform="translate(285.57 145.1) rotate(-45)">30</text><line class="cls-8" x1="312.95" y1="330.61" x2="354.79" y2="288.76"/><polygon class="cls-9" points="355.42 293.37 353.92 289.64 350.19 288.13 359.01 284.54 355.42 293.37"/><line class="cls-8" x1="320.52" y1="329.93" x2="362.36" y2="288.09"/><polygon class="cls-9" points="325.13 330.56 321.39 329.06 319.89 325.33 316.3 334.15 325.13 330.56"/><text class="cls-10" transform="translate(332.21 306) rotate(-45)">21</text><text class="cls-10" transform="translate(344.53 323.1) rotate(-45)">45</text><line class="cls-8" x1="18.81" y1="165.46" x2="60.65" y2="207.3"/><polygon class="cls-9" points="56.04 207.93 59.77 206.43 61.28 202.69 64.87 211.52 56.04 207.93"/><line class="cls-8" x1="19.48" y1="173.03" x2="61.32" y2="214.87"/><polygon class="cls-9" points="18.85 177.63 20.35 173.9 24.08 172.4 15.26 168.81 18.85 177.63"/><text class="cls-10" transform="translate(43.41 184.72) rotate(45)">7</text><text class="cls-10" transform="translate(26.32 197.04) rotate(45)">31</text><line class="cls-8" x1="77.17" y1="224.25" x2="119.01" y2="266.09"/><polygon class="cls-9" points="114.4 266.72 118.14 265.21 119.64 261.48 123.23 270.31 114.4 266.72"/><line class="cls-8" x1="77.84" y1="231.82" x2="119.68" y2="273.66"/><polygon class="cls-9" points="77.21 236.42 78.72 232.69 82.45 231.18 73.62 227.59 77.21 236.42"/><text class="cls-10" transform="translate(101.77 243.51) rotate(45)">12</text><text class="cls-10" transform="translate(84.68 255.83) rotate(45)">36</text></g></g></svg>