<svg xmlns="http://www.w3.org/2000/svg" viewBox="0 0 444.03 326.52"><defs><style>.cls-1{fill:#ef3b39;}.cls-2{fill:#4ec8f1;}.cls-3{fill:#72bf44;}.cls-4{fill:#ee4398;}.cls-5{font-size:21px;}.cls-10,.cls-5,.cls-9{fill:#231f20;}.cls-10,.cls-5{font-family:MyriadPro-Regular, Myriad Pro;}.cls-6{fill:#d1d3d4;stroke:#d1d3d4;stroke-width:4px;}.cls-6,.cls-8{stroke-miterlimit:10;}.cls-7{letter-spacing:-0.03em;}.cls-8{fill:none;stroke:#231f20;}.cls-10{font-size:14px;}</style></defs><title>Asset 3</title><g id="Layer_2" data-name="Layer 2"><g id="Layer_1-2" data-name="Layer 1"><circle class="cls-1" cx="104.3" cy="59.13" r="10"/><circle class="cls-1" cx="292.9" cy="59.13" r="10"/><circle class="cls-2" cx="198.6" cy="151.13" r="10"/><circle class="cls-3" cx="10" cy="153.43" r="10"/><circle class="cls-3" cx="387.2" cy="153.43" r="10"/><circle class="cls-4" cx="104.3" cy="247.73" r="10"/><circle class="cls-4" cx="292.9" cy="247.73" r="10"/><text class="cls-5" transform="translate(97.9 45.13)">0</text><text class="cls-5" transform="translate(287.49 45.13)">1</text><text class="cls-5" transform="translate(7.63 136.13)">2</text><text class="cls-5" transform="translate(191.6 135.13)">3</text><text class="cls-5" transform="translate(377.2 136.13)">4</text><text class="cls-5" transform="translate(99.9 232.13)">5</text><text class="cls-5" transform="translate(287.49 232.13)">6</text><line class="cls-6" x1="10" y1="60.42" x2="267.6" y2="318.02"/><rect class="cls-6" x="261.1" y="311.52" width="13" height="13"/><rect class="cls-6" x="3.5" y="53.92" width="13" height="13"/><line class="cls-6" x1="299.4" y1="8.5" x2="435.53" y2="144.63"/><rect class="cls-6" x="429.03" y="138.13" width="13" height="13"/><rect class="cls-6" x="292.9" y="2" width="13" height="13"/><text class="cls-5" transform="translate(198.6 232.18) rotate(45)"><tspan class="cls-7">F</tspan><tspan x="9.58" y="0">eedline 0</tspan></text><text class="cls-5" transform="translate(367.46 60.47) rotate(45)"><tspan class="cls-7">F</tspan><tspan x="9.58" y="0">eedline 1</tspan></text></g><g id="Connections"><line class="cls-8" x1="118.16" y1="65.7" x2="186.14" y2="133.68"/><polygon class="cls-9" points="181.54 134.32 185.27 132.81 186.77 129.08 190.36 137.91 181.54 134.32"/><line class="cls-8" x1="116.82" y1="75.18" x2="184.8" y2="143.16"/><polygon class="cls-9" points="116.19 79.78 117.69 76.05 121.42 74.54 112.6 70.95 116.19 79.78"/><text class="cls-10" transform="translate(156.69 95.85) rotate(45)">1</text><text class="cls-10" transform="translate(129.88 115.18) rotate(45)">9</text><line class="cls-8" x1="20" y1="139.38" x2="87.98" y2="71.4"/><polygon class="cls-9" points="88.61 76 87.11 72.27 83.38 70.76 92.2 67.17 88.61 76"/><line class="cls-8" x1="29.47" y1="140.72" x2="97.45" y2="72.74"/><polygon class="cls-9" points="34.08 141.35 30.35 139.84 28.84 136.11 25.25 144.94 34.08 141.35"/><text class="cls-10" transform="translate(50.08 100.77) rotate(-45)">0</text><text class="cls-10" transform="translate(69.41 127.58) rotate(-45)">8</text><line class="cls-8" x1="304.16" y1="67.29" x2="372.14" y2="135.27"/><polygon class="cls-9" points="367.54 135.9 371.27 134.4 372.77 130.67 376.36 139.49 367.54 135.9"/><line class="cls-8" x1="302.82" y1="76.76" x2="370.8" y2="144.74"/><polygon class="cls-9" points="302.19 81.37 303.69 77.64 307.42 76.13 298.6 72.54 302.19 81.37"/><text class="cls-10" transform="translate(342.82 97.44) rotate(45)">3</text><text class="cls-10" transform="translate(316.01 116.76) rotate(45)">1</text><line class="cls-8" x1="205.64" y1="139.4" x2="273.62" y2="71.41"/><polygon class="cls-9" points="274.25 76.02 272.75 72.29 269.02 70.78 277.84 67.19 274.25 76.02"/><line class="cls-8" x1="215.11" y1="140.74" x2="283.09" y2="72.75"/><polygon class="cls-9" points="219.72 141.37 215.99 139.86 214.48 136.13 210.89 144.96 219.72 141.37"/><text class="cls-10" transform="translate(235.85 100.79) rotate(-45)">2</text><text class="cls-10" transform="translate(255.18 127.6) rotate(-45)">10</text><line class="cls-8" x1="211.05" y1="160.09" x2="279.04" y2="228.07"/><polygon class="cls-9" points="274.43 228.7 278.16 227.2 279.67 223.47 283.26 232.29 274.43 228.7"/><line class="cls-8" x1="209.71" y1="169.56" x2="277.7" y2="237.54"/><polygon class="cls-9" points="209.08 174.17 210.59 170.44 214.32 168.93 205.49 165.34 209.08 174.17"/><text class="cls-10" transform="translate(222.84 209.63) rotate(45)">14</text><line class="cls-8" x1="113.54" y1="233.2" x2="181.52" y2="165.21"/><polygon class="cls-9" points="182.15 169.82 180.64 166.09 176.91 164.58 185.74 160.99 182.15 169.82"/><line class="cls-8" x1="123.01" y1="234.54" x2="190.99" y2="166.55"/><polygon class="cls-9" points="127.61 235.17 123.88 233.66 122.38 229.93 118.79 238.76 127.61 235.17"/><text class="cls-10" transform="translate(143.69 194.66) rotate(-45)">5</text><text class="cls-10" transform="translate(163.01 221.47) rotate(-45)">13</text><line class="cls-8" x1="299.74" y1="233.2" x2="367.73" y2="165.21"/><polygon class="cls-9" points="368.36 169.82 366.85 166.09 363.12 164.58 371.95 160.99 368.36 169.82"/><line class="cls-8" x1="309.22" y1="234.54" x2="377.2" y2="166.55"/><polygon class="cls-9" points="313.82 235.17 310.09 233.66 308.58 229.93 305 238.76 313.82 235.17"/><text class="cls-10" transform="translate(330.03 194.66) rotate(-45)">7</text><text class="cls-10" transform="translate(349.35 221.47) rotate(-45)">15</text><line class="cls-8" x1="25.99" y1="162.1" x2="93.97" y2="230.09"/><polygon class="cls-9" points="89.37 230.72 93.1 229.21 94.6 225.48 98.19 234.31 89.37 230.72"/><line class="cls-8" x1="24.65" y1="171.58" x2="92.63" y2="239.56"/><polygon class="cls-9" points="24.02 176.18 25.52 172.45 29.25 170.94 20.43 167.36 24.02 176.18"/><text class="cls-10" transform="translate(64.46 192.32) rotate(45)">4</text><text class="cls-10" transform="translate(37.65 211.65) rotate(45)">12</text><text class="cls-10" transform="translate(249.94 189.22) rotate(45)">6</text></g></g></svg>